<svg xmlns="http://www.w3.org/2000/svg" viewBox="0 0 30.84 30.84"><defs><style>.cls-1{fill:#ff6238;}</style></defs><title>Insta_Icon</title><g id="Layer_2" data-name="Layer 2"><g id="Connect"><path class="cls-1" d="M30.76,9.07A11.14,11.14,0,0,0,30,5.33a7.47,7.47,0,0,0-1.78-2.74A7.73,7.73,0,0,0,25.53.81,11.22,11.22,0,0,0,21.79.1C20.14,0,19.61,0,15.43,0S10.71,0,9.07.09A11.14,11.14,0,0,0,5.33.81,7.47,7.47,0,0,0,2.59,2.59,7.73,7.73,0,0,0,.81,5.32,11.22,11.22,0,0,0,.1,9.06C0,10.71,0,11.24,0,15.43s0,4.71.09,6.35a11.14,11.14,0,0,0,.72,3.74,7.59,7.59,0,0,0,1.78,2.74A7.73,7.73,0,0,0,5.32,30a11.22,11.22,0,0,0,3.74.71c1.65.08,2.17.09,6.36.09s4.71,0,6.36-.09A11.28,11.28,0,0,0,25.52,30,7.88,7.88,0,0,0,30,25.52a11.2,11.2,0,0,0,.72-3.74c.07-1.64.09-2.17.09-6.35S30.83,10.71,30.76,9.07ZM28,21.66a8.27,8.27,0,0,1-.53,2.86,5.1,5.1,0,0,1-2.93,2.93,8.33,8.33,0,0,1-2.86.53c-1.63.07-2.11.09-6.23.09s-4.61,0-6.23-.09a8.27,8.27,0,0,1-2.86-.53A4.76,4.76,0,0,1,4.57,26.3a4.71,4.71,0,0,1-1.15-1.77,8.33,8.33,0,0,1-.53-2.86C2.81,20,2.8,19.55,2.8,15.44s0-4.61.09-6.23a8.4,8.4,0,0,1,.53-2.87A4.79,4.79,0,0,1,4.57,4.57,4.92,4.92,0,0,1,6.34,3.42a8.72,8.72,0,0,1,2.87-.53c1.62-.07,2.11-.09,6.23-.09s4.61,0,6.23.09a8.58,8.58,0,0,1,2.86.53A4.76,4.76,0,0,1,26.3,4.57a4.92,4.92,0,0,1,1.15,1.77A8.46,8.46,0,0,1,28,9.21c.07,1.62.09,2.11.09,6.23S28.05,20,28,21.66Z"/><path class="cls-1" d="M15.43,7.5a7.93,7.93,0,1,0,7.92,7.93A7.93,7.93,0,0,0,15.43,7.5Zm0,13.06a5.14,5.14,0,1,1,5.13-5.13A5.14,5.14,0,0,1,15.43,20.56Z"/><path class="cls-1" d="M25.51,7.19a1.85,1.85,0,1,1-1.85-1.85A1.85,1.85,0,0,1,25.51,7.19Z"/></g></g></svg>