<svg xmlns="http://www.w3.org/2000/svg" viewBox="0 0 396.5 46.29"><title>Tagline</title><g id="Layer_2" data-name="Layer 2"><g id="Connect"><path d="M.14,28.52c.08-.24.14-.43.18-.58a.75.75,0,0,1,.18-.33,10.87,10.87,0,0,1,1.44-2.84,16,16,0,0,0,1.37-2.28A2.43,2.43,0,0,0,3.49,22a3.63,3.63,0,0,1,.19-.55c.08-.2.17-.4.27-.61a1.26,1.26,0,0,1,.4-.48.56.56,0,0,1,.3-.37,4.4,4.4,0,0,1,.49-.12h.18a1.07,1.07,0,0,1,1.1.73c.12.12.14.32.06.61a2.83,2.83,0,0,1-.37.61c-.36.57-.72,1.07-1.06,1.52a8.57,8.57,0,0,0-1,1.59c-.2.32-.42.73-.67,1.21l-.6,1.22a1.77,1.77,0,0,0-.27.61,2.86,2.86,0,0,0-.15.67c0,.08,0,.15.18.19a1.64,1.64,0,0,0,.36.06,6.33,6.33,0,0,0,1.37-.37c.54-.2,1.13-.43,1.76-.7s1.27-.57,1.92-.91,1.28-.7,1.89-1.07c.37-.16.69-.33,1-.49a2.51,2.51,0,0,1,1-.3q.12.06.12.3v.19a1.66,1.66,0,0,1-.48.51l-.61.46c-.45.37-1,.79-1.74,1.28s-1.44,1-2.19,1.43-1.49.9-2.2,1.28A13,13,0,0,1,3,31.32a2.11,2.11,0,0,1-1.43.13L1,31.26A1.65,1.65,0,0,1,.08,30Q0,29.86,0,29.8s0-.12,0-.24a3.24,3.24,0,0,1,.06-.73.54.54,0,0,1,.06-.25Q.2,28.46.14,28.52ZM5.44,18a.6.6,0,0,0,.06-.27.51.51,0,0,1,.07-.28,4.21,4.21,0,0,1,.3-.85c.12-.25.24-.49.37-.73a.58.58,0,0,1,.15-.19,1.45,1.45,0,0,0,.21-.18,1.61,1.61,0,0,1,1.71.37c.36.36.42.69.18,1a3.71,3.71,0,0,1-.91,1.34,2.13,2.13,0,0,1-1.34.67.44.44,0,0,1-.19,0,.27.27,0,0,0-.12,0c-.28-.08-.43-.22-.43-.43A1.13,1.13,0,0,0,5.44,18Z"/><path d="M17,29.86c.45-.28.9-.57,1.37-.85a8.94,8.94,0,0,0,1.31-1,11.68,11.68,0,0,1,1.62-1A16.46,16.46,0,0,0,23,26l.52-.27c.18-.1.38-.19.58-.28l.55-.24a4.31,4.31,0,0,1,.61-.24q.24-.06.12.18a.39.39,0,0,1,0,.3c0,.09-.08.19-.12.31l-1.28,1-.4.28-.4.27-2.31,2.2-1.49,1.34c-.51.44-1.05.89-1.62,1.34a4.47,4.47,0,0,0-.58.42,7.12,7.12,0,0,1-.58.49,5.54,5.54,0,0,0-.45.37,2.24,2.24,0,0,1-.34.24,1.29,1.29,0,0,1-1.34-.12l-.3-.25a4.63,4.63,0,0,1-.55-.79,2.1,2.1,0,0,1,.06-1.09l.24-1c.21-.57.39-1.12.55-1.65s.37-1.07.61-1.64l.55-1.52.12-.61a.39.39,0,0,0-.24-.37.71.71,0,0,0-.31.06l-1.46,1.46a5,5,0,0,1-.82.77,2.75,2.75,0,0,1-.95.45,3.35,3.35,0,0,1-.3.19.78.78,0,0,0-.25.24,1.66,1.66,0,0,1-.85.67l-.42.18c-.37.17-.63,0-.8-.36a1.17,1.17,0,0,1-.12-.92,8.47,8.47,0,0,0,.4-.91c.1-.28.21-.57.33-.85a7.35,7.35,0,0,0,.55-1,9.93,9.93,0,0,0,.43-1.16,2.73,2.73,0,0,1,.36-.85c.12-.37.27-.73.43-1.1a11.21,11.21,0,0,0,.43-1.16,5.85,5.85,0,0,1,.27-.67,6.65,6.65,0,0,0,.27-.61.54.54,0,0,1,.55-.3h.61l.4,0a.46.46,0,0,1,.33.21.94.94,0,0,1,.43,1,1.43,1.43,0,0,1-.12.58,1.4,1.4,0,0,0-.12.58.24.24,0,0,0,.24.12.67.67,0,0,0,.3-.06,6.3,6.3,0,0,1,1.07-.86,5.79,5.79,0,0,0,1.07-.85A2.6,2.6,0,0,1,19,19a1.19,1.19,0,0,1,1,.37l.13.21a.43.43,0,0,1,.06.22q.18.36.12.48a6.68,6.68,0,0,1-.24.8l-2.14,4.63-1.09,2.8a2,2,0,0,0-.19,1.22c0,.12.06.18.19.18h.12V30Z"/><path d="M45.78,30.65a4.79,4.79,0,0,1-1.52-.24,1.65,1.65,0,0,1-.25-.15l-.24-.16a1.73,1.73,0,0,1-.49-1.27,2.63,2.63,0,0,1,.19-.67.91.91,0,0,0,.06-.55.22.22,0,0,0-.25-.25.17.17,0,0,1-.12.06.17.17,0,0,0-.12.06,3.86,3.86,0,0,1-.85.92l-.55.43c-.17.12-.35.24-.55.36a5.8,5.8,0,0,0-.58.52,2.75,2.75,0,0,1-.64.46A4.3,4.3,0,0,1,36.7,31a1.84,1.84,0,0,1-1.1-.49,3.83,3.83,0,0,0-.42-.55.76.76,0,0,1-.06-1c.12-.29.23-.57.33-.86a2.67,2.67,0,0,0,.15-.91,1.5,1.5,0,0,1,.37-.73,6.94,6.94,0,0,1,.61-.85,6.32,6.32,0,0,1,.73-.74c.2-.2.41-.41.61-.64s.41-.43.61-.63a1.76,1.76,0,0,1,.43-.43,2.49,2.49,0,0,0,.48-.49,3.08,3.08,0,0,0,.52-.49c.14-.16.3-.32.46-.48a4.93,4.93,0,0,1,1.95-1.34L44,19.62a1.05,1.05,0,0,1,.43-.15l.49-.09a.91.91,0,0,1,.79,0h.12a2.69,2.69,0,0,0,.82.24l.89.13a1.21,1.21,0,0,1,.82.45.91.91,0,0,1,.09.76A3.73,3.73,0,0,1,48,22.67a10.31,10.31,0,0,1-.42,1,4.82,4.82,0,0,0-.37,1c-.08.2-.16.4-.24.58s-.16.38-.24.58-.25.65-.37,1-.22.63-.3.92v.42s0,.1.12.16a.4.4,0,0,0,.24.09,1.63,1.63,0,0,0,.49-.06c.32-.12.66-.27,1-.43l1-.49,1.52-1,1.53-1a15.53,15.53,0,0,1,2.07-.91,1.33,1.33,0,0,1,.42-.06.37.37,0,0,1,.25.12.35.35,0,0,1,.12.24l-.37.55c-.24.25-.48.49-.73.73a7.51,7.51,0,0,1-.73.67,16.1,16.1,0,0,0-1.58,1.16c-.49.41-1,.79-1.53,1.16-.28.2-.59.39-.91.58s-.65.37-1,.58A4.77,4.77,0,0,1,45.78,30.65Zm-.06-9.44c0-.25-.1-.37-.31-.37A1,1,0,0,1,45,21a.69.69,0,0,0-.37.13,3.27,3.27,0,0,0-.85.33,5.48,5.48,0,0,0-.73.52,9.29,9.29,0,0,0-1,.85l-1,1a22.73,22.73,0,0,0-1.4,1.8l-1.34,1.85v.25q-.06.12,0,.15a.12.12,0,0,1,0,.09h.42a1.64,1.64,0,0,1,.37-.27,1.47,1.47,0,0,0,.36-.28c.53-.44,1.06-.9,1.59-1.37s1-.92,1.52-1.37l1.31-1.19c.43-.38.84-.78,1.25-1.19l.31-.33a1.74,1.74,0,0,0,.24-.46q.06-.12,0-.15A.12.12,0,0,1,45.72,21.21Z"/><path d="M59.31,29.86c.44-.28.9-.57,1.37-.85A8.94,8.94,0,0,0,62,28a11.56,11.56,0,0,1,1.61-1,15.57,15.57,0,0,0,1.68-1l.52-.27a6.27,6.27,0,0,1,.58-.28l.54-.24a5.56,5.56,0,0,1,.61-.24c.17,0,.21,0,.13.18a.39.39,0,0,1,0,.3,1.81,1.81,0,0,0-.13.31l-1.28,1-.39.28-.4.27-2.31,2.2-1.5,1.34c-.5.44-1,.89-1.61,1.34a3.43,3.43,0,0,0-.58.42c-.18.17-.38.33-.58.49l-.46.37a1.83,1.83,0,0,1-.33.24,1.29,1.29,0,0,1-1.34-.12l-.31-.25a5,5,0,0,1-.54-.79A1.89,1.89,0,0,1,56,31.45l.24-1c.2-.57.39-1.12.55-1.65a15.25,15.25,0,0,1,.61-1.64l.55-1.52L58,25a.38.38,0,0,0-.25-.37.67.67,0,0,0-.3.06L56,26.14a5.05,5.05,0,0,1-.83.77,2.71,2.71,0,0,1-.94.45,3.35,3.35,0,0,1-.3.19.63.63,0,0,0-.25.24,1.66,1.66,0,0,1-.85.67l-.43.18c-.36.17-.63,0-.79-.36a1.17,1.17,0,0,1-.12-.92,8.28,8.28,0,0,0,.39-.91c.11-.28.22-.57.34-.85a8.54,8.54,0,0,0,.55-1,9.91,9.91,0,0,0,.42-1.16,3,3,0,0,1,.37-.85,10,10,0,0,1,.43-1.1,9.29,9.29,0,0,0,.42-1.16,5.86,5.86,0,0,1,.28-.67A6.65,6.65,0,0,0,55,19a.52.52,0,0,1,.55-.3h.61l.39,0a.46.46,0,0,1,.34.21.94.94,0,0,1,.43,1,1.43,1.43,0,0,1-.12.58,1.27,1.27,0,0,0-.13.58.26.26,0,0,0,.25.12.67.67,0,0,0,.3-.06,6.3,6.3,0,0,1,1.07-.86,5.73,5.73,0,0,0,1.06-.85A2.65,2.65,0,0,1,61.26,19a1.21,1.21,0,0,1,1,.37l.12.21a.44.44,0,0,1,.07.22q.18.36.12.48c-.09.33-.17.59-.25.8l-2.13,4.63-1.1,2.8a2,2,0,0,0-.18,1.22.16.16,0,0,0,.18.18h.13V30Z"/><path d="M80.69,32.18A2.63,2.63,0,0,1,79.6,32l-.25-.12a1.86,1.86,0,0,0-.36-.12.7.7,0,0,1-.18-.12.78.78,0,0,0-.19-.12A7.24,7.24,0,0,0,78,31a2,2,0,0,1-.45-.61,1.45,1.45,0,0,1,0-1.16,9,9,0,0,1,.3-1c.12-.33.25-.67.37-1l.15-.43a2.06,2.06,0,0,1,.21-.42A5,5,0,0,0,79.11,25a1.55,1.55,0,0,1,.49-1,3.87,3.87,0,0,1,1.16-1.52l.7-.73a5.51,5.51,0,0,1,.7-.67,3.89,3.89,0,0,0,.42-.25l.7-.21.83-.21a.6.6,0,0,1,.27-.06h.27a1.19,1.19,0,0,1,.68.3,9.73,9.73,0,0,1,.85.85,4.92,4.92,0,0,1,.43.86,1,1,0,0,1-.13,1,7.43,7.43,0,0,1-.85.95c-.33.3-.65.6-1,.88l-1.21,1c-.41.35-.84.69-1.28,1a1.39,1.39,0,0,1-1,.24.84.84,0,0,0-.36.06,1.31,1.31,0,0,0-.49.37,1.93,1.93,0,0,0-.24.73,2.65,2.65,0,0,0-.19,1.52l.19.22a.88.88,0,0,0,.24.21,1.89,1.89,0,0,0,.79.06,5.51,5.51,0,0,0,1.46-.42,14.33,14.33,0,0,0,1.56-.67c.46-.25.94-.51,1.43-.8l1.55-.94,1.56-1a1.89,1.89,0,0,1,.55-.12.32.32,0,0,1,.39,0c.14.11.19.2.15.28a2.83,2.83,0,0,1-.91,1.52,10.43,10.43,0,0,0-1.31.85c-.43.33-.82.65-1.19,1l-1,.64a5,5,0,0,1-1.13.52c-.29.12-.58.23-.88.33a3,3,0,0,1-.95.15,5.19,5.19,0,0,1-.85.19A3.1,3.1,0,0,1,80.69,32.18Zm3.84-9.39a.33.33,0,0,1-.12-.21q0-.09-.06-.09H84a1.77,1.77,0,0,1-.25.3c-.41.41-.8.84-1.19,1.28a6.33,6.33,0,0,0-.94,1.47q0,.24.06.24h.18c.21-.2.41-.4.61-.58s.41-.38.61-.58a2.65,2.65,0,0,0,.79-.73,8.14,8.14,0,0,0,.55-.85A.35.35,0,0,0,84.53,22.79Z"/><path d="M93.49,26c-1.06.57-2,1.15-2.92,1.74A25.5,25.5,0,0,0,88,29.68a11.94,11.94,0,0,1-2,1.34,8.29,8.29,0,0,1-2.14.85c.12-.36.23-.65.31-.85a3.52,3.52,0,0,1,.27-.55,4.88,4.88,0,0,1,.4-.52,7.21,7.21,0,0,1,.67-.64c.93-.65,1.82-1.31,2.65-2s1.71-1.37,2.65-2.1a1.25,1.25,0,0,0,.49-.33,1.61,1.61,0,0,1,.36-.34,2.33,2.33,0,0,0-.45-1.22,9.36,9.36,0,0,1-.7-.85,5.84,5.84,0,0,1-.8-2,4.13,4.13,0,0,1,1.71-.12,3.55,3.55,0,0,1,1.31.48,7.85,7.85,0,0,1,1.07.83,9,9,0,0,0,1,.82,8.76,8.76,0,0,1,2-1.34l2-1a1.11,1.11,0,0,1,1-.12,7.46,7.46,0,0,0,.91.31c.53,0,.75.26.67.79-.89.48-1.76,1-2.59,1.49s-1.65,1.05-2.47,1.61a3.26,3.26,0,0,0,.8,1.41,6.85,6.85,0,0,1,1,1.22,6,6,0,0,0,.67.88,5.48,5.48,0,0,1,.61.76,4.21,4.21,0,0,1,.09.49,4.63,4.63,0,0,0,.09.49,1.84,1.84,0,0,1-.73.85,4.26,4.26,0,0,1-.88.15.86.86,0,0,1-.76-.33c-.21-.21-.37-.38-.49-.52a3.19,3.19,0,0,0-.49-.46c-.44-.53-.9-1-1.37-1.55S94,26.59,93.49,26Z"/><path d="M106.65,18.83c-.08.25-.16.53-.24.86a3.75,3.75,0,0,1-.43,1c-.24.57-.5,1.12-.76,1.65s-.52,1.07-.76,1.64L104,25.17a7.68,7.68,0,0,0-.34,1.22,5.64,5.64,0,0,0-.15,1.06c0,.39,0,.75,0,1.07a2.44,2.44,0,0,0,.64,1.65,2.42,2.42,0,0,0,1.74.3,9.86,9.86,0,0,0,3.41-1l.91-.46a5.29,5.29,0,0,1,.92-.34.74.74,0,0,1,.27.06.93.93,0,0,0,.4.07c-.45.56-.85,1.11-1.22,1.64a3.65,3.65,0,0,1-1.4,1.22,6.56,6.56,0,0,1-4,.67,4.12,4.12,0,0,1-2.87-1.74,4.8,4.8,0,0,1-1-3.26,9.46,9.46,0,0,1,.42-1.73,19.31,19.31,0,0,0,.55-1.86c.45-1,.9-1.95,1.34-2.93a23.65,23.65,0,0,1,1.53-2.8,4.29,4.29,0,0,0,.67-1c.16-.36.34-.75.55-1.15a2,2,0,0,0,0-1.53,3.4,3.4,0,0,1-.67-.06,4,4,0,0,0-.74-.06c-1,0-2,0-3,.06s-2.08.06-3.14.06a19,19,0,0,1-2.19-.12,10.27,10.27,0,0,1-2.14-.49,1.92,1.92,0,0,1-.64-.36,5.08,5.08,0,0,0-.64-.49,3.19,3.19,0,0,1,1.19-.43,10.45,10.45,0,0,1,1.07-.06h12.37A7.76,7.76,0,0,0,109.27,10c.33-.53.65-1,1-1.53A12.84,12.84,0,0,0,111.1,7a.8.8,0,0,0,.18-.27.84.84,0,0,1,.18-.28,1.84,1.84,0,0,1,.86-.48,3.6,3.6,0,0,1,1-.13.89.89,0,0,1,.86.37,6,6,0,0,0,.48.79c-.69.81-1.35,1.63-2,2.44a20.13,20.13,0,0,0-1.73,2.62,19.49,19.49,0,0,0,3.71.12q1.77-.12,3.54-.12a31,31,0,0,0,3.35.06c1.13,0,2.23-.06,3.29-.06s2.29.13,3.47.15,2.36.07,3.54.15a19.81,19.81,0,0,1-6.4,1l-3.32.24-3.32.25Q117,14,115.06,14t-3.78.18h-.67a2.39,2.39,0,0,0-1.22.28,1.68,1.68,0,0,0-.73,1,8.12,8.12,0,0,1-.73,1.28,13.71,13.71,0,0,0-.79,1.28H107a3.31,3.31,0,0,0-.19.4Q106.77,18.59,106.65,18.83Z"/><path d="M109.94,28.7q.86-2,1.59-4.05a15,15,0,0,0,.85-4.17c.28-.16.52-.29.7-.37a.87.87,0,0,1,.55-.06,1.52,1.52,0,0,1,.61.34c.22.18.49.43.82.76a2.69,2.69,0,0,0,.67-.52,7.58,7.58,0,0,0,.49-.64c.56-.41,1.12-.79,1.67-1.16a5.74,5.74,0,0,1,1.86-.79,9.1,9.1,0,0,1,1.62-.09,3.29,3.29,0,0,1,1.43.39.88.88,0,0,1,.61.86c-.17.4-.37.61-.61.61h-.55a1.52,1.52,0,0,1-.55-.12,6.81,6.81,0,0,0-1.43.15,2.44,2.44,0,0,0-1.31.82A40.84,40.84,0,0,0,115.73,24a15.55,15.55,0,0,0-2.5,4,3.52,3.52,0,0,1-.27.64c-.1.19-.24.4-.4.64a.7.7,0,0,1-1,.49,5.16,5.16,0,0,1-.89-.3A2,2,0,0,1,109.94,28.7Z"/><path d="M122.92,32.18a2.68,2.68,0,0,1-1.1-.19l-.24-.12a2,2,0,0,0-.37-.12.7.7,0,0,1-.18-.12.7.7,0,0,0-.18-.12c-.21-.21-.4-.39-.58-.55a1.89,1.89,0,0,1-.46-.61,1.45,1.45,0,0,1,0-1.16,9,9,0,0,1,.3-1c.13-.33.25-.67.37-1l.15-.43a2.07,2.07,0,0,1,.22-.42,5.37,5.37,0,0,0,.48-1.34,1.6,1.6,0,0,1,.49-1A3.87,3.87,0,0,1,123,22.49c.24-.25.48-.49.7-.73a6.27,6.27,0,0,1,.7-.67,4.09,4.09,0,0,0,.43-.25l.7-.21.82-.21a.61.61,0,0,1,.28-.06h.27a1.15,1.15,0,0,1,.67.3,9.73,9.73,0,0,1,.85.85,4.31,4.31,0,0,1,.43.86,1.06,1.06,0,0,1-.12,1,7.54,7.54,0,0,1-.86.95c-.32.3-.65.6-1,.88l-1.22,1c-.41.35-.83.69-1.28,1a1.37,1.37,0,0,1-1,.24.86.86,0,0,0-.37.06,1.4,1.4,0,0,0-.49.37,1.93,1.93,0,0,0-.24.73,2.65,2.65,0,0,0-.18,1.52,2.22,2.22,0,0,1,.18.22.88.88,0,0,0,.24.21,1.89,1.89,0,0,0,.79.06,5.7,5.7,0,0,0,1.47-.42,14.14,14.14,0,0,0,1.55-.67c.47-.25,1-.51,1.43-.8l1.56-.94,1.55-1a2,2,0,0,1,.55-.12.33.33,0,0,1,.4,0c.14.11.19.2.15.28a2.85,2.85,0,0,1-.92,1.52,11.21,11.21,0,0,0-1.31.85c-.42.33-.82.65-1.19,1l-1,.64a4.85,4.85,0,0,1-1.13.52c-.28.12-.58.23-.88.33a3,3,0,0,1-.95.15,5,5,0,0,1-.85.19A3,3,0,0,1,122.92,32.18Zm3.84-9.39a.33.33,0,0,1-.12-.21c0-.06,0-.09-.07-.09h-.36a1.14,1.14,0,0,1-.25.3c-.4.41-.8.84-1.18,1.28a6.37,6.37,0,0,0-1,1.47q0,.24.06.24h.19c.2-.2.4-.4.61-.58s.4-.38.6-.58a2.82,2.82,0,0,0,.8-.73c.2-.28.38-.57.55-.85A.35.35,0,0,0,126.76,22.79Z"/><path d="M129.62,30.17a2.32,2.32,0,0,1,.43-1.28c.2-.33.4-.69.61-1.1a11.08,11.08,0,0,1,.61-1.1,5.2,5.2,0,0,1,.24-.52l.3-.51a2.07,2.07,0,0,1,.13-.43,5.39,5.39,0,0,1,.45-1.43,11.58,11.58,0,0,0,.58-1.43,1.2,1.2,0,0,1,.43-.61.47.47,0,0,1,.49-.31,2.11,2.11,0,0,1,.67-.12q.36-.12.48.3a1.42,1.42,0,0,1,.25.92v.3a.29.29,0,0,0,.21.28.41.41,0,0,0,.4,0,1.48,1.48,0,0,1,.42-.25l.31-.3a1.9,1.9,0,0,1,.42-.31.45.45,0,0,1,.31-.12,1.24,1.24,0,0,0,.37-.06,3.62,3.62,0,0,1,.79-.06,1.61,1.61,0,0,1,1.46.79.68.68,0,0,0,.06.31.38.38,0,0,0,.49.12,1.58,1.58,0,0,0,.24-.15,1.28,1.28,0,0,1,.25-.15l.91-.92a6.29,6.29,0,0,0,.64-.61c.18-.2.37-.4.58-.61a1,1,0,0,1,.33-.39l.4-.28c.32-.2.65-.41,1-.64s.65-.46,1-.7a2,2,0,0,1,1.52-.24.93.93,0,0,1,.73.55v.3a11.09,11.09,0,0,1-.27,1.1,5,5,0,0,1-.46,1c-.36.78-.71,1.55-1,2.32a23.39,23.39,0,0,1-1.1,2.25c-.2.53-.42,1.06-.64,1.59s-.46,1-.7,1.58-.39.81-.55,1.2-.34.82-.55,1.27a.89.89,0,0,1,0,.19,1.07,1.07,0,0,0,0,.25q0,.24.12.24c0,.09.1.09.19,0a1,1,0,0,0,.42-.18c.45-.32.89-.65,1.31-1a11.58,11.58,0,0,0,1.25-1.1l.12-.09a.4.4,0,0,0,.13-.15,5.68,5.68,0,0,1,1-.83,5.28,5.28,0,0,0,1-.82,11.16,11.16,0,0,1,1-.91c.37-.29.71-.57,1-.86a3.79,3.79,0,0,0,.67-.42,1.94,1.94,0,0,1,.73-.37h.12c.16.08.21.16.12.24a.44.44,0,0,1,0,.19l-.09.18a1.06,1.06,0,0,1-.24.67,8,8,0,0,1-1.1,1.22,12.52,12.52,0,0,0-1.09,1.1,3.9,3.9,0,0,0-.89.73,8.43,8.43,0,0,1-.76.73l-1.43,1.41c-.47.45-.95.92-1.43,1.41a9.31,9.31,0,0,1-1.89,1.76,1.73,1.73,0,0,1-.64.34c-.23.06-.46.11-.7.15a1.24,1.24,0,0,1-1-.42A2.14,2.14,0,0,1,140.1,33a5.67,5.67,0,0,1,.55-1.31c.2-.41.41-.82.61-1.21s.4-.81.61-1.26.39-.74.58-1.12.37-.77.58-1.13.16-.4.24-.58a2.79,2.79,0,0,0,.18-.58c.21-.45.39-.88.55-1.31s.35-.86.55-1.31a1.39,1.39,0,0,0,.24-.49,1,1,0,0,0,.06-.42.2.2,0,0,0-.15-.19.32.32,0,0,0-.27,0,.39.39,0,0,0-.25.12l-.51.43a5.9,5.9,0,0,0-.46.43,26,26,0,0,0-2,1.95q-.94,1-1.86,2.07c-.2.28-.42.56-.64.82l-.64.76-.46.58-.45.58a2.64,2.64,0,0,1-.74.8,1,1,0,0,1-1.33,0,2.16,2.16,0,0,1-.49-.52,2.92,2.92,0,0,1-.31-.64c0-.17,0-.25.06-.25a5.33,5.33,0,0,0,.22-.64,4.15,4.15,0,0,1,.27-.7,4.69,4.69,0,0,0,.25-1,.21.21,0,0,0-.1-.19q-.09-.06-.15,0a.73.73,0,0,0-.73.37,5.48,5.48,0,0,0-.55.64,3.91,3.91,0,0,0-.43.82c-.16.24-.31.49-.45.73a8.33,8.33,0,0,0-.4.79,4.46,4.46,0,0,1-.85,1.18.46.46,0,0,1-.4.28.8.8,0,0,1-.52-.09.58.58,0,0,1-.54-.31A1.26,1.26,0,0,1,129.62,30.17Z"/><path d="M152.78,32.18a2.65,2.65,0,0,1-1.1-.19l-.24-.12a2.3,2.3,0,0,0-.37-.12.7.7,0,0,1-.18-.12.62.62,0,0,0-.19-.12,7.24,7.24,0,0,0-.58-.55,2,2,0,0,1-.45-.61,1.45,1.45,0,0,1,0-1.16,9,9,0,0,1,.3-1c.12-.33.25-.67.37-1l.15-.43a2.06,2.06,0,0,1,.21-.42,5,5,0,0,0,.49-1.34,1.6,1.6,0,0,1,.49-1,3.87,3.87,0,0,1,1.16-1.52l.7-.73a5.51,5.51,0,0,1,.7-.67,3.89,3.89,0,0,0,.42-.25l.7-.21.83-.21a.6.6,0,0,1,.27-.06h.28a1.19,1.19,0,0,1,.67.3,9.73,9.73,0,0,1,.85.85,4.92,4.92,0,0,1,.43.86,1,1,0,0,1-.13,1,6.75,6.75,0,0,1-.85.95c-.32.3-.65.6-1,.88s-.82.66-1.22,1-.84.69-1.28,1a1.39,1.39,0,0,1-1,.24.84.84,0,0,0-.36.06,1.31,1.31,0,0,0-.49.37,1.93,1.93,0,0,0-.24.73A2.65,2.65,0,0,0,152,30.1a2.6,2.6,0,0,1,.19.22.88.88,0,0,0,.24.21,1.89,1.89,0,0,0,.79.06,5.51,5.51,0,0,0,1.46-.42,14.33,14.33,0,0,0,1.56-.67c.47-.25.94-.51,1.43-.8l1.55-.94,1.56-1a1.89,1.89,0,0,1,.55-.12.32.32,0,0,1,.39,0c.14.11.2.2.16.28a2.91,2.91,0,0,1-.92,1.52,10.43,10.43,0,0,0-1.31.85c-.43.33-.82.65-1.19,1l-1,.64a4.85,4.85,0,0,1-1.13.52c-.28.12-.58.23-.88.33a3,3,0,0,1-1,.15,5.19,5.19,0,0,1-.85.19A3,3,0,0,1,152.78,32.18Zm3.83-9.39a.33.33,0,0,1-.12-.21q0-.09-.06-.09h-.36a1.39,1.39,0,0,1-.25.3c-.4.41-.8.84-1.19,1.28a6.33,6.33,0,0,0-.94,1.47q0,.24.06.24h.18c.21-.2.41-.4.61-.58s.41-.38.61-.58a2.65,2.65,0,0,0,.79-.73,8.14,8.14,0,0,0,.55-.85A.35.35,0,0,0,156.61,22.79Z"/><path d="M179.1,26.51a6.45,6.45,0,0,0-1,.09,5.77,5.77,0,0,1-.91.09,3.41,3.41,0,0,1-.92-.12,5.35,5.35,0,0,1-.91-.36,2.71,2.71,0,0,1-1.52-2.05,4.45,4.45,0,0,1,.54-2.71,4.14,4.14,0,0,1,1.28-1.19,11.94,11.94,0,0,1,2-1,11.5,11.5,0,0,1,2.13-.64,6.68,6.68,0,0,1,1.79-.15,1,1,0,0,1,.86.54.57.57,0,0,1-.06.58.55.55,0,0,1-.43.22,7,7,0,0,0-1.37.33,14.18,14.18,0,0,0-1.62.67,13,13,0,0,0-1.49.89,4.43,4.43,0,0,0-1.06,1,1.35,1.35,0,0,0-.25,1,.91.91,0,0,0,.37.73h2.13a5.7,5.7,0,0,1,2.1.48,3.15,3.15,0,0,1,1.62,1.28,2.48,2.48,0,0,1,0,1.86,9.73,9.73,0,0,1-1.19,2.26,20.13,20.13,0,0,1-1.92,2.34,16,16,0,0,1-2.29,2,19.44,19.44,0,0,1-2.25,1.47,4,4,0,0,1-1.74.58,2.58,2.58,0,0,1-1-.16c-.25-.1-.33-.23-.25-.39.94-.65,1.74-1.19,2.41-1.62a14.64,14.64,0,0,0,2.23-1.8l1.31-1.52a18.19,18.19,0,0,0,1.52-2.07A5.51,5.51,0,0,0,180,27.3C180.08,26.77,179.79,26.51,179.1,26.51Z"/><path d="M189.82,18.83c-.08.25-.16.53-.24.86a3.18,3.18,0,0,1-.43,1c-.24.57-.5,1.12-.76,1.65s-.52,1.07-.76,1.64-.32.85-.46,1.22a6.76,6.76,0,0,0-.33,1.22,4.91,4.91,0,0,0-.16,1.06c0,.39,0,.75,0,1.07a2.49,2.49,0,0,0,.64,1.65,2.42,2.42,0,0,0,1.74.3,9.79,9.79,0,0,0,3.41-1l.92-.46a4.9,4.9,0,0,1,.91-.34.74.74,0,0,1,.27.06,1,1,0,0,0,.4.07c-.45.56-.85,1.11-1.22,1.64a3.58,3.58,0,0,1-1.4,1.22,6.56,6.56,0,0,1-4,.67,4.1,4.1,0,0,1-2.86-1.74,4.76,4.76,0,0,1-1-3.26,8.75,8.75,0,0,1,.43-1.73c.2-.59.38-1.21.55-1.86.44-1,.89-1.95,1.34-2.93A22.23,22.23,0,0,1,188.3,18a4,4,0,0,0,.67-1c.16-.36.34-.75.55-1.15a2,2,0,0,0,0-1.53,3.4,3.4,0,0,1-.67-.06,3.91,3.91,0,0,0-.73-.06c-1,0-2,0-3,.06s-2.08.06-3.14.06a19,19,0,0,1-2.19-.12,10.18,10.18,0,0,1-2.13-.49,1.75,1.75,0,0,1-.64-.36,7.12,7.12,0,0,0-.64-.49,3.09,3.09,0,0,1,1.18-.43,10.61,10.61,0,0,1,1.07-.06H191A7.57,7.57,0,0,0,192.44,10c.33-.53.65-1,1-1.53A12.84,12.84,0,0,0,194.27,7a.8.8,0,0,0,.18-.27.73.73,0,0,1,.19-.28,1.76,1.76,0,0,1,.85-.48,3.6,3.6,0,0,1,1-.13.89.89,0,0,1,.86.37,6,6,0,0,0,.48.79c-.69.81-1.35,1.63-2,2.44a20.13,20.13,0,0,0-1.73,2.62,19.52,19.52,0,0,0,3.71.12q1.77-.12,3.54-.12a31,31,0,0,0,3.35.06c1.14,0,2.23-.06,3.29-.06s2.3.13,3.47.15,2.36.07,3.54.15a19.81,19.81,0,0,1-6.4,1l-3.32.24-3.32.25q-1.83.12-3.72.18t-3.78.18h-.67a2.42,2.42,0,0,0-1.22.28,1.68,1.68,0,0,0-.73,1,7.4,7.4,0,0,1-.73,1.28,13.71,13.71,0,0,0-.79,1.28h-.12c-.08.16-.15.3-.19.4S189.9,18.67,189.82,18.83Z"/><path d="M203.59,30.65a4.84,4.84,0,0,1-1.52-.24,1.58,1.58,0,0,1-.24-.15l-.25-.16a1.77,1.77,0,0,1-.49-1.27,3.11,3.11,0,0,1,.19-.67.91.91,0,0,0,.06-.55.22.22,0,0,0-.25-.25.17.17,0,0,1-.12.06.17.17,0,0,0-.12.06,3.67,3.67,0,0,1-.85.92l-.55.43a6.57,6.57,0,0,1-.55.36c-.2.16-.39.34-.58.52a2.56,2.56,0,0,1-.64.46,4.3,4.3,0,0,1-3.17.85,1.8,1.8,0,0,1-1.09-.49A3.78,3.78,0,0,0,193,30a.78.78,0,0,1-.06-1c.12-.29.23-.57.33-.86a2.45,2.45,0,0,0,.16-.91,1.43,1.43,0,0,1,.36-.73,8.21,8.21,0,0,1,.61-.85,6.32,6.32,0,0,1,.73-.74c.21-.2.41-.41.61-.64l.61-.63a2,2,0,0,1,.43-.43,2.82,2.82,0,0,0,.49-.49,3.42,3.42,0,0,0,.51-.49l.46-.48a4.93,4.93,0,0,1,2-1.34l1.65-.74a1,1,0,0,1,.42-.15,4.21,4.21,0,0,0,.49-.09.91.91,0,0,1,.79,0h.12a2.68,2.68,0,0,0,.83.24l.88.13a1.18,1.18,0,0,1,.82.45.88.88,0,0,1,.09.76,3.85,3.85,0,0,1-.42,1.71,10.43,10.43,0,0,1-.43,1,4.77,4.77,0,0,0-.36,1l-.25.58c-.08.18-.16.38-.24.58l-.37,1c-.12.33-.22.63-.3.92v.42s0,.1.12.16a.4.4,0,0,0,.24.09,1.59,1.59,0,0,0,.49-.06c.33-.12.66-.27,1-.43s.68-.32,1-.49l1.52-1,1.53-1a15.53,15.53,0,0,1,2.07-.91,1.35,1.35,0,0,1,.43-.06.42.42,0,0,1,.36.36l-.36.55-.74.73a7.51,7.51,0,0,1-.73.67,17.4,17.4,0,0,0-1.58,1.16c-.49.41-1,.79-1.52,1.16-.29.2-.59.39-.92.58s-.65.37-1,.58A4.81,4.81,0,0,1,203.59,30.65Zm-.06-9.44c0-.25-.1-.37-.3-.37a1,1,0,0,1-.43.12.66.66,0,0,0-.36.13,3.35,3.35,0,0,0-.86.33,5.48,5.48,0,0,0-.73.52,9.22,9.22,0,0,0-1,.85l-1,1c-.49.57-1,1.17-1.4,1.8s-.89,1.24-1.34,1.85v.25q-.06.12,0,.15a.12.12,0,0,1,0,.09h.43a1.41,1.41,0,0,1,.36-.27,1.72,1.72,0,0,0,.37-.28c.52-.44,1.05-.9,1.58-1.37s1-.92,1.52-1.37l1.31-1.19c.43-.38.85-.78,1.25-1.19a3,3,0,0,0,.31-.33,1.74,1.74,0,0,0,.24-.46q.06-.12,0-.15A.12.12,0,0,1,203.53,21.21Z"/><path d="M216,18.83c-.08.25-.16.53-.24.86a3.18,3.18,0,0,1-.43,1c-.24.57-.5,1.12-.76,1.65s-.52,1.07-.76,1.64-.32.85-.46,1.22a6.76,6.76,0,0,0-.33,1.22,4.91,4.91,0,0,0-.16,1.06c0,.39,0,.75,0,1.07a2.49,2.49,0,0,0,.64,1.65,2.42,2.42,0,0,0,1.74.3,9.79,9.79,0,0,0,3.41-1l.92-.46a5.18,5.18,0,0,1,.91-.34.74.74,0,0,1,.27.06,1,1,0,0,0,.4.07c-.45.56-.85,1.11-1.22,1.64a3.58,3.58,0,0,1-1.4,1.22,6.56,6.56,0,0,1-4,.67,4.1,4.1,0,0,1-2.86-1.74,4.76,4.76,0,0,1-1-3.26,8.75,8.75,0,0,1,.43-1.73c.2-.59.38-1.21.55-1.86.44-1,.89-1.95,1.34-2.93A22.23,22.23,0,0,1,214.5,18a4,4,0,0,0,.67-1c.16-.36.34-.75.55-1.15a2,2,0,0,0,0-1.53,3.4,3.4,0,0,1-.67-.06,3.91,3.91,0,0,0-.73-.06c-1,0-2,0-3,.06s-2.08.06-3.14.06A19,19,0,0,1,206,14.2a10.18,10.18,0,0,1-2.13-.49,1.75,1.75,0,0,1-.64-.36,7.12,7.12,0,0,0-.64-.49,3.09,3.09,0,0,1,1.18-.43,10.61,10.61,0,0,1,1.07-.06h12.37A7.57,7.57,0,0,0,218.64,10c.33-.53.65-1,1-1.53A12.84,12.84,0,0,0,220.47,7a.8.8,0,0,0,.18-.27.73.73,0,0,1,.19-.28,1.76,1.76,0,0,1,.85-.48,3.6,3.6,0,0,1,1-.13c.45,0,.74.13.86.37A6,6,0,0,0,224,7c-.69.81-1.35,1.63-2,2.44a21.21,21.21,0,0,0-1.73,2.62,19.52,19.52,0,0,0,3.71.12q1.77-.12,3.54-.12a31,31,0,0,0,3.35.06c1.14,0,2.23-.06,3.29-.06s2.3.13,3.47.15,2.36.07,3.54.15a19.77,19.77,0,0,1-6.4,1l-3.32.24-3.32.25q-1.83.12-3.72.18t-3.78.18H220a2.42,2.42,0,0,0-1.22.28,1.68,1.68,0,0,0-.73,1,7.4,7.4,0,0,1-.73,1.28,13.71,13.71,0,0,0-.79,1.28h-.12c-.08.16-.15.3-.19.4S216.1,18.67,216,18.83Z"/><path d="M222.42,32.18a2.68,2.68,0,0,1-1.1-.19l-.24-.12a1.77,1.77,0,0,0-.37-.12.7.7,0,0,1-.18-.12.7.7,0,0,0-.18-.12c-.2-.21-.4-.39-.58-.55a2,2,0,0,1-.46-.61,1.45,1.45,0,0,1,0-1.16,9.08,9.08,0,0,1,.31-1c.12-.33.24-.67.36-1,0-.12.09-.26.16-.43a2.06,2.06,0,0,1,.21-.42,5.79,5.79,0,0,0,.49-1.34,1.6,1.6,0,0,1,.48-1,4,4,0,0,1,1.16-1.52c.25-.25.48-.49.7-.73a6.27,6.27,0,0,1,.7-.67,4.09,4.09,0,0,0,.43-.25l.7-.21.82-.21a.61.61,0,0,1,.28-.06h.27a1.12,1.12,0,0,1,.67.3,8.51,8.51,0,0,1,.85.85,3.84,3.84,0,0,1,.43.86,1.06,1.06,0,0,1-.12,1,7.43,7.43,0,0,1-.85.95c-.33.3-.65.6-1,.88l-1.22,1a16.26,16.26,0,0,1-1.28,1,1.37,1.37,0,0,1-1,.24.86.86,0,0,0-.37.06,1.51,1.51,0,0,0-.49.37,1.93,1.93,0,0,0-.24.73,2.73,2.73,0,0,0-.18,1.52,2.22,2.22,0,0,1,.18.22.88.88,0,0,0,.24.21,1.93,1.93,0,0,0,.8.06,5.74,5.74,0,0,0,1.46-.42,13.34,13.34,0,0,0,1.55-.67c.47-.25.95-.51,1.43-.8l1.56-.94,1.55-1a2,2,0,0,1,.55-.12.33.33,0,0,1,.4,0c.14.11.19.2.15.28a2.89,2.89,0,0,1-.91,1.52,9.76,9.76,0,0,0-1.31.85c-.43.33-.83.65-1.19,1l-1,.64a4.67,4.67,0,0,1-1.13.52c-.28.12-.57.23-.88.33a3,3,0,0,1-.94.15,5.3,5.3,0,0,1-.86.19A3,3,0,0,1,222.42,32.18Zm3.84-9.39a.33.33,0,0,1-.12-.21q0-.09-.06-.09h-.37a1.29,1.29,0,0,1-.24.3c-.41.41-.81.84-1.19,1.28a6.37,6.37,0,0,0-.95,1.47c0,.16,0,.24.07.24h.18c.2-.2.4-.4.61-.58s.4-.38.61-.58a2.78,2.78,0,0,0,.79-.73c.2-.28.38-.57.55-.85A.35.35,0,0,0,226.26,22.79Z"/><path d="M252.15,22.12a1.84,1.84,0,0,1-.06.43c0,.33.19.49.55.49h.61a5.72,5.72,0,0,1,1.31-.12,5.09,5.09,0,0,0,1.31-.13h.86a.39.39,0,0,1,.12.25c.16.24.14.42-.06.55a.31.31,0,0,1-.16.21.59.59,0,0,0-.21.15q-.24.24-.36.24a11,11,0,0,1-1.56.31,10,10,0,0,0-1.49.3,4.62,4.62,0,0,1-1.89.43l-.21.12-.22.12a.71.71,0,0,0-.15.22.38.38,0,0,1-.09.15,1.67,1.67,0,0,0-.24.4,1,1,0,0,1-.19.27,8.44,8.44,0,0,1-1.92,2.56q-1.24,1.16-2.28,1.95a2.45,2.45,0,0,1-1.22.49h-.43a.87.87,0,0,1-.42-.13,2,2,0,0,1-1.1-.6,2.84,2.84,0,0,1-.55-1.1.46.46,0,0,1-.06-.18,1.44,1.44,0,0,1,.06-.92,1.05,1.05,0,0,1,.15-.3.52.52,0,0,0,.1-.31,4,4,0,0,0,.3-.73,13.55,13.55,0,0,1,.46-1.4c.14-.37.33-.83.58-1.4l.36-.85a8.62,8.62,0,0,1,.43-.86,6.34,6.34,0,0,1,.52-.79c.18-.24.37-.49.57-.73s.39-.63.55-.92.35-.58.55-.91a1,1,0,0,1,.67-.43.92.92,0,0,1,.67-.24l1.52-.24a1.53,1.53,0,0,1,1.35.36.53.53,0,0,0,.24.15.67.67,0,0,1,.24.16,4.6,4.6,0,0,1,.31.55q.12.24.3.54a4.19,4.19,0,0,1,.18.58,1.72,1.72,0,0,1,0,.64Zm-3.53,2.56a.47.47,0,0,0-.06-.3,4.24,4.24,0,0,1-.49-.73l-.36-.73a.64.64,0,0,0-.31-.25.47.47,0,0,0-.3-.06.51.51,0,0,0-.31.18c-.2.29-.4.61-.61,1a17.23,17.23,0,0,0-1,2.19,23.21,23.21,0,0,0-.73,2.32v.18a.29.29,0,0,0,0,.24.14.14,0,0,0,.15.13q.18.12.3,0a5.11,5.11,0,0,0,2.2-1.65A19.93,19.93,0,0,0,248.56,25,.71.71,0,0,0,248.62,24.68Zm1.95-4.2a.39.39,0,0,0-.12-.25q-.24,0-.24.06a2.75,2.75,0,0,0-1,1.77.29.29,0,0,0,0,.22.66.66,0,0,1,0,.21,1.05,1.05,0,0,0,.12.3.35.35,0,0,0,.28.13.35.35,0,0,0,.27-.13,2.38,2.38,0,0,0,.3-.36,1.89,1.89,0,0,0,.31-.86l.12-1Z"/><path d="M250.63,38.09a2.83,2.83,0,0,0,.09-.58,3.49,3.49,0,0,1,.16-.82q.06-.8.12-1.53a5.57,5.57,0,0,1,.36-1.52,3,3,0,0,1,.16-1c.1-.32.21-.65.33-1a11.8,11.8,0,0,1,.43-1.31c.16-.43.3-.86.42-1.31q.74-2.13,1.71-4.33c.12-.28.26-.6.43-.94s.3-.68.42-1a9.08,9.08,0,0,1,.61-1.31,12.42,12.42,0,0,0,.67-1.31c.29-.57.57-1.1.86-1.61s.56-1,.85-1.62c.2-.36.41-.76.64-1.19a7.2,7.2,0,0,0,.52-1.3,1.48,1.48,0,0,0,.24-.49,2.48,2.48,0,0,1,.24-.49A.75.75,0,0,0,260,13a4.67,4.67,0,0,1,.91-1.76,9.24,9.24,0,0,0,.67-1c.2-.36.43-.73.67-1.1s.41-.68.61-1.06.4-.76.61-1.13A5.3,5.3,0,0,0,264,6.1c.44-.61.87-1.23,1.28-1.86a20.47,20.47,0,0,0,1.09-1.92.69.69,0,0,1,.22-.24.18.18,0,0,1,.27,0h.58a3.09,3.09,0,0,1,.58.06,1.11,1.11,0,0,1,.61.48,1,1,0,0,1,.12.92,3,3,0,0,1-.21.64c-.11.22-.22.44-.34.64-.45.65-.88,1.32-1.31,2s-.86,1.34-1.31,1.95c-.28.45-.57.86-.85,1.25a6.2,6.2,0,0,0-.73,1.25,2.83,2.83,0,0,1-.16.36,1.2,1.2,0,0,1-.21.31A16.43,16.43,0,0,0,262.24,14c-.39.69-.8,1.42-1.25,2.19l-1.25,2.13a20.71,20.71,0,0,0-1.13,2.26,4,4,0,0,1-.45.88,2.56,2.56,0,0,0-.4.89.47.47,0,0,0-.06.3.38.38,0,0,0,.27.4,1.59,1.59,0,0,0,.46.09h.49a6.69,6.69,0,0,1,2.44.09,7.66,7.66,0,0,0,2.43.15,1.78,1.78,0,0,0,.92,0q1.16.06,2.28.06a20.55,20.55,0,0,0,2.23-.12.5.5,0,0,1,.48,0c.25,0,.33.12.25.37a1,1,0,0,0-.12.42.41.41,0,0,1-.25.25l-.21.09a.71.71,0,0,0-.22.15l-1.46.24-1.46.25a8.73,8.73,0,0,1-2.71-.18,11,11,0,0,0-2.59-.31.93.93,0,0,0-.34.06,1.84,1.84,0,0,0-.33.18c.08.37.15.65.21.86a4.07,4.07,0,0,0,.22.58,1.34,1.34,0,0,1,.12.33,13.18,13.18,0,0,1,.48,2.56,17.16,17.16,0,0,1,.07,2.56,15.7,15.7,0,0,1-.4,3.72,31.23,31.23,0,0,1-1.07,3.35c-.12.32-.25.64-.39.94s-.32.62-.52,1a2.84,2.84,0,0,1-.52.79,8.47,8.47,0,0,0-.64.79,7.41,7.41,0,0,1-.76.88,4.29,4.29,0,0,1-.94.71,2,2,0,0,1-1.34.36,1.28,1.28,0,0,1-.49-.06,1.78,1.78,0,0,1-.92-.3,4.64,4.64,0,0,0-.67-.37,2.16,2.16,0,0,1-.33-.27,3.69,3.69,0,0,0-.28-.28,4.48,4.48,0,0,1-.6-.91c-.17-.33-.35-.65-.55-1a1.07,1.07,0,0,0-.13-.21.37.37,0,0,1-.06-.21,6.93,6.93,0,0,1-.12-1.19Zm1.89.42v.74a3.05,3.05,0,0,0,.06.6,4.91,4.91,0,0,0,.43,1.89,2.43,2.43,0,0,0,.42.67,1.06,1.06,0,0,0,.92.19.23.23,0,0,1,.24-.19,4,4,0,0,0,.85-.73,5.22,5.22,0,0,1,.64-.73,1.92,1.92,0,0,0,.52-.79l.19-.18a3.16,3.16,0,0,1,.3-.67c.24-.49.48-1,.7-1.47s.44-1,.64-1.58.31-1.23.46-2,.25-1.51.33-2.29a16.89,16.89,0,0,0,.09-2.22A6.44,6.44,0,0,0,259,28a2.38,2.38,0,0,0-.06-.55c0-.16-.09-.44-.15-.85s-.14-.82-.22-1.25a5.58,5.58,0,0,0-.33-1.13c-.14-.32-.3-.48-.46-.48a1.05,1.05,0,0,0-1,.48s0,.06-.06.06c-.33.66-.62,1.28-.89,1.86s-.5,1.19-.7,1.8c-.08.21-.14.38-.18.52a1.59,1.59,0,0,1-.18.4,22.07,22.07,0,0,0-.8,2.31,25,25,0,0,0-1.28,5.36c0,.37-.08.72-.12,1.07S252.56,38.23,252.52,38.51Z"/><path d="M296.64,25.54a2.49,2.49,0,0,1,.85-.92q.06-.24.3,0v.12l-.12.61-.49,1-9.44,11.94a1.49,1.49,0,0,0-.4.43,2.36,2.36,0,0,1-.33.42,3.2,3.2,0,0,1-1.16.92,5.66,5.66,0,0,1-1.4.42,2.56,2.56,0,0,1-.61-.06,1.08,1.08,0,0,1-.79-.24,4.52,4.52,0,0,1-.49-.4,2.15,2.15,0,0,1-.43-.51,1.49,1.49,0,0,1-.3-.55l-.06-.8v-.42a1.33,1.33,0,0,1,.18-.79l.37-.86a1.56,1.56,0,0,0,.39-.55c.06-.16.13-.34.22-.54a10.24,10.24,0,0,1,1.15-2.32l.86-1.64.79-1.35.49-1,2.13-3.72a1,1,0,0,0,0-.49l-.25-.12a.35.35,0,0,0-.24.06,18.41,18.41,0,0,0-2.56,1.65,15.37,15.37,0,0,0-2.19,2l-2.2,3.29a2.39,2.39,0,0,1-1,.79.87.87,0,0,1-.25.19.39.39,0,0,0-.18.18c-.32.45-.58.67-.76.67a.48.48,0,0,1-.43-.28,2.11,2.11,0,0,1-.21-.76,7,7,0,0,1-.06-.85,4.18,4.18,0,0,1,.67-1.28,6.82,6.82,0,0,0,1.28-2.47,16.32,16.32,0,0,1,1-2.53c.37-.81.76-1.61,1.16-2.4s.83-1.64,1.28-2.53l1.28-2.44c.12-.24.27-.5.43-.76a3.13,3.13,0,0,0,.36-.88.63.63,0,0,1,.25-.43,3.21,3.21,0,0,0,.48-.79c.13-.29.27-.57.43-.86l.85-1.34a16.7,16.7,0,0,0,1-2.19,9.44,9.44,0,0,1,.52-1.1c.18-.32.37-.67.58-1a20.11,20.11,0,0,1,1.49-2.81,15.86,15.86,0,0,0,1.31-2.43,1.73,1.73,0,0,1,.3-.52,1.11,1.11,0,0,0,.25-.58,1,1,0,0,1,.12-.46,1.57,1.57,0,0,1,.24-.33A1.61,1.61,0,0,1,294.53,0a1.1,1.1,0,0,1,1.13.8.5.5,0,0,1,0,.48,1.45,1.45,0,0,1-.12.22.2.2,0,0,0,0,.21,6.14,6.14,0,0,0-.4.55,4.67,4.67,0,0,0-.27.49l-2,3.35-.73,1.34c-1,2-1.9,3.8-2.78,5.42s-1.69,3.13-2.46,4.51-1.46,2.64-2.05,3.78a32,32,0,0,0-1.43,3.17.82.82,0,0,0,0,.48c.06.25.13.39.22.43h.06c.24-.16.58-.41,1-.73l.95-.73,1.34-.92c.24-.16.48-.3.7-.42a3.52,3.52,0,0,1,.82-.31,3,3,0,0,1,2.13-.06l.31.18a1.11,1.11,0,0,1,.55.8,2.64,2.64,0,0,1-.09,1,6.14,6.14,0,0,1-.43,1.07c-.18.34-.34.64-.46.88a12.9,12.9,0,0,0-.67,1.13c-.2.39-.43.78-.67,1.19L288.29,30c0,.08-.09.18-.15.28a2.09,2.09,0,0,0-.16.27c-.48.81-1,1.65-1.4,2.5s-.89,1.75-1.34,2.68a5.17,5.17,0,0,0-.73,1.83q-.06.12.12.3h.18c.09,0,.13,0,.13-.06.32-.28.66-.56,1-.82a3.23,3.23,0,0,0,.82-.88.38.38,0,0,0,.19-.16,1,1,0,0,1,.12-.15c.24-.2.75-.67,1.52-1.4s1.64-1.59,2.59-2.59,1.92-2.05,2.9-3.17S295.9,26.47,296.64,25.54Z"/><path d="M305.78,30.65a4.9,4.9,0,0,1-1.53-.24,1.58,1.58,0,0,1-.24-.15l-.25-.16a1.76,1.76,0,0,1-.48-1.27,3.11,3.11,0,0,1,.18-.67.91.91,0,0,0,.06-.55c0-.17-.08-.25-.24-.25a.19.19,0,0,1-.13.06.17.17,0,0,0-.12.06,3.67,3.67,0,0,1-.85.92l-.55.43a5.25,5.25,0,0,1-.55.36c-.2.16-.39.34-.58.52a2.56,2.56,0,0,1-.64.46,4.29,4.29,0,0,1-3.16.85,1.82,1.82,0,0,1-1.1-.49,3.78,3.78,0,0,0-.43-.55.78.78,0,0,1-.06-1c.12-.29.24-.57.34-.86a2.67,2.67,0,0,0,.15-.91,1.43,1.43,0,0,1,.36-.73,8.21,8.21,0,0,1,.61-.85,6.45,6.45,0,0,1,.74-.74c.2-.2.4-.41.6-.64l.61-.63a2.19,2.19,0,0,1,.43-.43,2.52,2.52,0,0,0,.49-.49,4.1,4.1,0,0,0,.52-.49q.21-.24.45-.48a4.93,4.93,0,0,1,1.95-1.34l1.65-.74a1,1,0,0,1,.42-.15,3.86,3.86,0,0,0,.49-.09.91.91,0,0,1,.79,0h.13a2.54,2.54,0,0,0,.82.24l.88.13a1.18,1.18,0,0,1,.82.45.88.88,0,0,1,.1.76,3.86,3.86,0,0,1-.43,1.71,10.43,10.43,0,0,1-.43,1,4.77,4.77,0,0,0-.36,1l-.25.58c-.08.18-.16.38-.24.58s-.24.65-.37,1-.22.63-.3.92v.42s0,.1.12.16a.4.4,0,0,0,.24.09,1.59,1.59,0,0,0,.49-.06c.33-.12.66-.27,1-.43s.68-.32,1-.49l1.53-1,1.52-1a15.53,15.53,0,0,1,2.07-.91,1.35,1.35,0,0,1,.43-.06.42.42,0,0,1,.36.36l-.36.55-.73.73c-.25.25-.49.47-.73.67a16.26,16.26,0,0,0-1.59,1.16c-.49.41-1,.79-1.52,1.16-.29.2-.59.39-.92.58s-.65.37-1,.58A4.8,4.8,0,0,1,305.78,30.65Zm-.07-9.44c0-.25-.1-.37-.3-.37A1,1,0,0,1,305,21a.66.66,0,0,0-.36.13,3.35,3.35,0,0,0-.86.33,6.22,6.22,0,0,0-.73.52,9.22,9.22,0,0,0-1,.85l-1,1c-.48.57-.95,1.17-1.4,1.8s-.89,1.24-1.34,1.85v.25q-.06.12,0,.15a.12.12,0,0,1,0,.09h.43a1.41,1.41,0,0,1,.36-.27,1.5,1.5,0,0,0,.37-.28c.53-.44,1.05-.9,1.58-1.37s1-.92,1.53-1.37.88-.8,1.31-1.19.84-.78,1.25-1.19a4.09,4.09,0,0,0,.3-.33,1.74,1.74,0,0,0,.24-.46q.06-.12,0-.15A.12.12,0,0,1,305.71,21.21Z"/><path d="M327.28,23.71q-.12.24-.21.39a2.07,2.07,0,0,0-.15.34c-.21.32-.42.64-.64.94s-.44.6-.64.89a4.6,4.6,0,0,0-.79,1,9,9,0,0,1-.73.76,7.24,7.24,0,0,1-.8.64,1.23,1.23,0,0,0-.42.31,7.69,7.69,0,0,1-1,.76c-.36.22-.73.44-1.1.64l-1.27.55a7.14,7.14,0,0,1-2.5.48h-.37a2.08,2.08,0,0,1-1.28-.54.65.65,0,0,0-.21-.16.27.27,0,0,1-.15-.15.84.84,0,0,1-.25-.73,4.4,4.4,0,0,1,.49-1.16,1,1,0,0,1,.3-.36,29.44,29.44,0,0,1,2.5-2.2,25.64,25.64,0,0,1,2.8-1.58c.53-.25,1-.47,1.53-.67s.95-.41,1.4-.61l1-.55a1.8,1.8,0,0,0,.39-.39.78.78,0,0,0,.09-.58.79.79,0,0,0-.55-.74,2.15,2.15,0,0,0-.79-.12,6.25,6.25,0,0,0-2.44.86,22.45,22.45,0,0,0-3.1,2.22,16.39,16.39,0,0,0-2.62,2.83c-.53.78-1,1.56-1.47,2.35s-.85,1.59-1.21,2.41l-1.1,2.37-.61,1.59c-.12.32-.24.66-.37,1a9,9,0,0,1-.42,1,13.94,13.94,0,0,0-.86,2.5c-.16.4-.3.81-.42,1.21a9.3,9.3,0,0,1-.43,1.16,1.54,1.54,0,0,0-.15.46,1.63,1.63,0,0,1-.15.46c-.16.44-.32.87-.46,1.28a9,9,0,0,1-.52,1.21l-.3.43a1.14,1.14,0,0,1-.31.09.48.48,0,0,1-.3,0c-.12,0-.19-.08-.19-.24a3.33,3.33,0,0,1,.13-1.77,10.59,10.59,0,0,1,.36-1.64,2.8,2.8,0,0,1,0-.4,3.23,3.23,0,0,0,0-.46c.08-.4.18-.8.28-1.19s.21-.8.33-1.24c.37-1.1.76-2.18,1.19-3.23s.86-2.12,1.31-3.17l2.13-5,.95-2c.3-.65.6-1.32.88-2l.37-.73a7.93,7.93,0,0,1,.48-1.31c.21-.43.43-.86.67-1.31.09-.16.17-.34.25-.52a2.93,2.93,0,0,0,.18-.52,2,2,0,0,0,.12-.61,1.14,1.14,0,0,1,0-.58c.06-.18.14-.37.22-.57a1.2,1.2,0,0,1,.42-.37,3.11,3.11,0,0,1,1.71,0,1.07,1.07,0,0,1,.49.37.65.65,0,0,1,.12.54l-.37.86c-.24.4-.46.82-.67,1.25s-.4.82-.61,1.18a1.94,1.94,0,0,0-.06.55s0,.1.12.19.11.08.19,0a2.83,2.83,0,0,0,.36-.16,1.2,1.2,0,0,0,.31-.21,12.81,12.81,0,0,1,2.74-1.71l.91-.42a4.72,4.72,0,0,1,1.56-.34,9,9,0,0,1,1.61.09,3,3,0,0,1,1.77,1l.21.21a2.1,2.1,0,0,1,.22.28,1.82,1.82,0,0,1,.3,1.37A3.23,3.23,0,0,1,327.28,23.71Zm-4.14,2-.18-.18a.57.57,0,0,0-.61.12l-2.74,1.52a7.76,7.76,0,0,0-1,.73,4.2,4.2,0,0,0-.79.92,1.23,1.23,0,0,0-.31.42v.06c.09.21.21.31.37.31a3.66,3.66,0,0,0,1.07-.25,4.21,4.21,0,0,0,.88-.48c.57-.45,1.1-.89,1.58-1.31s1-.89,1.41-1.37l.3-.37Z"/><path d="M342.7,23.71q-.12.24-.21.39a1.5,1.5,0,0,0-.16.34c-.2.32-.41.64-.64.94l-.64.89a5,5,0,0,0-.79,1,7.63,7.63,0,0,1-.73.76,7.11,7.11,0,0,1-.79.64,1.25,1.25,0,0,0-.43.31,7.6,7.6,0,0,1-1,.76l-1.1.64-1.28.55a7.09,7.09,0,0,1-2.5.48H332a2.05,2.05,0,0,1-1.28-.54.78.78,0,0,0-.22-.16.27.27,0,0,1-.15-.15.87.87,0,0,1-.24-.73,4.4,4.4,0,0,1,.48-1.16,1.08,1.08,0,0,1,.31-.36,26.64,26.64,0,0,1,2.5-2.2,24.74,24.74,0,0,1,2.8-1.58c.53-.25,1-.47,1.52-.67s1-.41,1.4-.61l1-.55a2.12,2.12,0,0,0,.4-.39.78.78,0,0,0,.09-.58.81.81,0,0,0-.55-.74,2.19,2.19,0,0,0-.79-.12,6.13,6.13,0,0,0-2.44.86,22.55,22.55,0,0,0-3.11,2.22,16.79,16.79,0,0,0-2.62,2.83c-.53.78-1,1.56-1.46,2.35s-.85,1.59-1.22,2.41l-1.1,2.37-.6,1.59c-.13.32-.25.66-.37,1a7.47,7.47,0,0,1-.43,1,13.9,13.9,0,0,0-.85,2.5c-.16.4-.31.81-.43,1.21a9.29,9.29,0,0,1-.42,1.16,1.58,1.58,0,0,0-.16.46,1.63,1.63,0,0,1-.15.46l-.46,1.28a10.4,10.4,0,0,1-.51,1.21l-.31.43a1.07,1.07,0,0,1-.3.09.52.52,0,0,1-.31,0q-.18,0-.18-.24a3.42,3.42,0,0,1,.12-1.77,10.6,10.6,0,0,1,.37-1.64,2.8,2.8,0,0,1,0-.4,3.23,3.23,0,0,0,0-.46c.08-.4.17-.8.27-1.19s.22-.8.34-1.24c.36-1.1.76-2.18,1.19-3.23s.86-2.12,1.31-3.17l2.13-5,.94-2c.31-.65.6-1.32.89-2l.36-.73a8,8,0,0,1,.49-1.31c.2-.43.43-.86.67-1.31.08-.16.16-.34.24-.52a3,3,0,0,0,.19-.52,2,2,0,0,0,.12-.61,1.14,1.14,0,0,1,0-.58q.09-.27.21-.57a1.25,1.25,0,0,1,.43-.37,3.07,3.07,0,0,1,1.7,0,1,1,0,0,1,.49.37.65.65,0,0,1,.12.54l-.36.86a11.52,11.52,0,0,0-.67,1.25c-.21.42-.41.82-.61,1.18a1.94,1.94,0,0,0-.06.55s0,.1.12.19.1.08.18,0a3,3,0,0,0,.37-.16,1.14,1.14,0,0,0,.3-.21,13.33,13.33,0,0,1,2.74-1.71l.92-.42a4.66,4.66,0,0,1,1.55-.34,9.1,9.1,0,0,1,1.62.09,3,3,0,0,1,1.76,1l.22.21a1.54,1.54,0,0,1,.21.28,1.78,1.78,0,0,1,.31,1.37A3.59,3.59,0,0,1,342.7,23.71Zm-4.14,2-.19-.18a.57.57,0,0,0-.61.12L335,27.18a7.69,7.69,0,0,0-1,.73,4.26,4.26,0,0,0-.8.92,1.18,1.18,0,0,0-.3.42v.06c.08.21.2.31.37.31a3.59,3.59,0,0,0,1.06-.25,4.28,4.28,0,0,0,.89-.48c.56-.45,1.09-.89,1.58-1.31s.95-.89,1.4-1.37l.31-.37Z"/><path d="M342.82,28.52c.08-.24.14-.43.18-.58a.75.75,0,0,1,.18-.33,11.14,11.14,0,0,1,1.43-2.84A15.3,15.3,0,0,0,346,22.49a2.43,2.43,0,0,0,.18-.49,3.63,3.63,0,0,1,.19-.55c.08-.2.17-.4.27-.61a1.26,1.26,0,0,1,.4-.48.56.56,0,0,1,.3-.37,3.9,3.9,0,0,1,.49-.12H348a1.07,1.07,0,0,1,1.1.73c.12.12.14.32.06.61a3.33,3.33,0,0,1-.37.61c-.36.57-.72,1.07-1.06,1.52a8.57,8.57,0,0,0-1,1.59c-.2.32-.42.73-.67,1.21l-.6,1.22a1.77,1.77,0,0,0-.27.61,2.86,2.86,0,0,0-.15.67c0,.08,0,.15.18.19a1.64,1.64,0,0,0,.36.06,6.12,6.12,0,0,0,1.36-.37c.55-.2,1.14-.43,1.77-.7s1.27-.57,1.92-.91,1.28-.7,1.89-1.07c.37-.16.69-.33,1-.49a2.46,2.46,0,0,1,1-.3q.12.06.12.3v.19a1.59,1.59,0,0,1-.49.51l-.6.46c-.45.37-1,.79-1.74,1.28s-1.44,1-2.2,1.43-1.48.9-2.19,1.28a13,13,0,0,1-1.73.82,2.14,2.14,0,0,1-1.44.13l-.53-.19a1.65,1.65,0,0,1-1-1.22q-.12-.18-.06-.24s0-.12,0-.24a3.24,3.24,0,0,1,.06-.73.54.54,0,0,1,.06-.25Q342.88,28.46,342.82,28.52ZM348.12,18a.6.6,0,0,0,.06-.27.61.61,0,0,1,.06-.28,4.2,4.2,0,0,1,.31-.85l.36-.73a.6.6,0,0,1,.16-.19,1.45,1.45,0,0,0,.21-.18,1.61,1.61,0,0,1,1.71.37c.36.36.42.69.18,1a3.63,3.63,0,0,1-.92,1.34,2.08,2.08,0,0,1-1.34.67.42.42,0,0,1-.18,0l-.12,0c-.29-.08-.43-.22-.43-.43A1.13,1.13,0,0,0,348.12,18Z"/><path d="M359.7,29.86c.45-.28.9-.57,1.37-.85a8.94,8.94,0,0,0,1.31-1A12.18,12.18,0,0,1,364,27a15.57,15.57,0,0,0,1.68-1l.52-.27a6.27,6.27,0,0,1,.58-.28l.55-.24a4.31,4.31,0,0,1,.61-.24q.24-.06.12.18a.39.39,0,0,1,0,.3c0,.09-.08.19-.12.31l-1.28,1-.4.28-.4.27-2.31,2.2-1.49,1.34c-.51.44-1.05.89-1.62,1.34a3.88,3.88,0,0,0-.58.42,7.12,7.12,0,0,1-.58.49,5.54,5.54,0,0,0-.45.37,2.24,2.24,0,0,1-.34.24,1.29,1.29,0,0,1-1.34-.12l-.3-.25a4.63,4.63,0,0,1-.55-.79,2,2,0,0,1,.06-1.09l.24-1c.2-.57.39-1.12.55-1.65s.37-1.07.61-1.64l.55-1.52.12-.61a.39.39,0,0,0-.24-.37.68.68,0,0,0-.31.06l-1.46,1.46a5.42,5.42,0,0,1-.82.77,2.75,2.75,0,0,1-.95.45,3.35,3.35,0,0,1-.3.19.69.69,0,0,0-.25.24,1.66,1.66,0,0,1-.85.67l-.43.18c-.36.17-.63,0-.79-.36a1.17,1.17,0,0,1-.12-.92c.16-.32.29-.63.4-.91s.21-.57.33-.85a8.54,8.54,0,0,0,.55-1,12.14,12.14,0,0,0,.43-1.16,2.73,2.73,0,0,1,.36-.85c.12-.37.27-.73.43-1.1a9.29,9.29,0,0,0,.42-1.16c.09-.24.18-.46.28-.67a6.65,6.65,0,0,0,.27-.61.53.53,0,0,1,.55-.3h.61l.4,0a.46.46,0,0,1,.33.21.94.94,0,0,1,.43,1,1.43,1.43,0,0,1-.12.58,1.41,1.41,0,0,0-.13.58.27.27,0,0,0,.25.12.67.67,0,0,0,.3-.06,6.3,6.3,0,0,1,1.07-.86,6.15,6.15,0,0,0,1.07-.85,2.6,2.6,0,0,1,1.52-.43,1.19,1.19,0,0,1,1,.37,1.07,1.07,0,0,0,.13.21.43.43,0,0,1,.06.22q.18.36.12.48a6.68,6.68,0,0,1-.24.8l-2.14,4.63-1.09,2.8a2,2,0,0,0-.19,1.22c0,.12.06.18.19.18h.12V30Z"/><path d="M368.41,32.18a2.6,2.6,0,0,1-1.09-.19l-.25-.12a1.86,1.86,0,0,0-.36-.12.78.78,0,0,1-.19-.12.7.7,0,0,0-.18-.12c-.2-.21-.4-.39-.58-.55a2,2,0,0,1-.45-.61,1.38,1.38,0,0,1,0-1.16,9,9,0,0,1,.3-1l.37-1,.15-.43a2.06,2.06,0,0,1,.21-.42,5.36,5.36,0,0,0,.49-1.34,1.55,1.55,0,0,1,.49-1,3.83,3.83,0,0,1,1.15-1.52c.25-.25.48-.49.7-.73a7.28,7.28,0,0,1,.7-.67,3.27,3.27,0,0,0,.43-.25l.7-.21.82-.21a.67.67,0,0,1,.28-.06h.27a1.12,1.12,0,0,1,.67.3,9.91,9.91,0,0,1,.86.85,4.3,4.3,0,0,1,.42.86,1.06,1.06,0,0,1-.12,1,7.43,7.43,0,0,1-.85.95c-.33.3-.65.6-1,.88l-1.22,1a16.26,16.26,0,0,1-1.28,1,1.35,1.35,0,0,1-1,.24.89.89,0,0,0-.37.06,1.34,1.34,0,0,0-.48.37,1.82,1.82,0,0,0-.25.73,2.73,2.73,0,0,0-.18,1.52,2.22,2.22,0,0,1,.18.22,1,1,0,0,0,.25.21,1.89,1.89,0,0,0,.79.06,5.62,5.62,0,0,0,1.46-.42,14.33,14.33,0,0,0,1.56-.67c.46-.25.94-.51,1.43-.8l1.55-.94,1.56-1a1.9,1.9,0,0,1,.54-.12.33.33,0,0,1,.4,0c.14.11.19.2.15.28a2.83,2.83,0,0,1-.91,1.52,9.76,9.76,0,0,0-1.31.85c-.43.33-.83.65-1.19,1l-1,.64a4.77,4.77,0,0,1-1.12.52c-.29.12-.58.23-.89.33a3,3,0,0,1-.94.15,5.43,5.43,0,0,1-.85.19A3.1,3.1,0,0,1,368.41,32.18Zm3.84-9.39a.33.33,0,0,1-.12-.21q0-.09-.06-.09h-.37a1.29,1.29,0,0,1-.24.3c-.41.41-.8.84-1.19,1.28a6,6,0,0,0-.94,1.47q0,.24.06.24h.18c.2-.2.41-.4.61-.58s.4-.38.61-.58a2.78,2.78,0,0,0,.79-.73c.2-.28.39-.57.55-.85A.35.35,0,0,0,372.25,22.79Z"/><path d="M382.06,26.51a6.33,6.33,0,0,0-1,.09,5.88,5.88,0,0,1-.92.09,3.34,3.34,0,0,1-.91-.12,5.43,5.43,0,0,1-.92-.36,2.71,2.71,0,0,1-1.52-2.05,4.46,4.46,0,0,1,.55-2.71,3.93,3.93,0,0,1,1.28-1.19,12.23,12.23,0,0,1,2-1,11.5,11.5,0,0,1,2.13-.64,6.72,6.72,0,0,1,1.8-.15.94.94,0,0,1,.85.54.57.57,0,0,1-.06.58.53.53,0,0,1-.43.22,7.15,7.15,0,0,0-1.37.33,14,14,0,0,0-1.61.67,11.5,11.5,0,0,0-1.49.89,4.49,4.49,0,0,0-1.07,1,1.34,1.34,0,0,0-.24,1,.93.93,0,0,0,.36.73h2.13a5.79,5.79,0,0,1,2.11.48,3.08,3.08,0,0,1,1.61,1.28,2.48,2.48,0,0,1,0,1.86,9.36,9.36,0,0,1-1.19,2.26,20.13,20.13,0,0,1-1.92,2.34,16.53,16.53,0,0,1-2.28,2,19.51,19.51,0,0,1-2.26,1.47,4,4,0,0,1-1.73.58,2.63,2.63,0,0,1-1-.16q-.36-.15-.24-.39c.93-.65,1.74-1.19,2.41-1.62a14.15,14.15,0,0,0,2.22-1.8l1.31-1.52a16.06,16.06,0,0,0,1.52-2.07,5.51,5.51,0,0,0,.79-1.83C383.05,26.77,382.75,26.51,382.06,26.51Z"/><path d="M393.09,26.51a6.45,6.45,0,0,0-1,.09,5.77,5.77,0,0,1-.91.09,3.28,3.28,0,0,1-.91-.12,5.43,5.43,0,0,1-.92-.36,2.71,2.71,0,0,1-1.52-2.05,4.46,4.46,0,0,1,.55-2.71,3.93,3.93,0,0,1,1.28-1.19,12.23,12.23,0,0,1,2-1,11.5,11.5,0,0,1,2.13-.64,6.72,6.72,0,0,1,1.8-.15.94.94,0,0,1,.85.54.57.57,0,0,1-.06.58.54.54,0,0,1-.43.22,7.15,7.15,0,0,0-1.37.33,13.33,13.33,0,0,0-1.61.67,12.35,12.35,0,0,0-1.5.89,4.63,4.63,0,0,0-1.06,1,1.35,1.35,0,0,0-.25,1,.94.94,0,0,0,.37.73h2.13a5.7,5.7,0,0,1,2.1.48,3.11,3.11,0,0,1,1.62,1.28,2.48,2.48,0,0,1,0,1.86,9.36,9.36,0,0,1-1.19,2.26,20.13,20.13,0,0,1-1.92,2.34,16.53,16.53,0,0,1-2.28,2,20.4,20.4,0,0,1-2.26,1.47,4,4,0,0,1-1.73.58,2.6,2.6,0,0,1-1-.16q-.36-.15-.24-.39,1.39-1,2.4-1.62a14.64,14.64,0,0,0,2.23-1.8l1.31-1.52a17.06,17.06,0,0,0,1.52-2.07A5.51,5.51,0,0,0,394,27.3C394.07,26.77,393.78,26.51,393.09,26.51Z"/></g></g></svg>